<svg t="1703747271094" class="icon" viewBox="0 0 1024 1024" version="1.1" xmlns="http://www.w3.org/2000/svg">
  <path d="M512 64C264.6 64 64 264.6 64 512s200.6 448 448 448 448-200.6 448-448S759.4 64 512 64z m0 820c-205.4 0-372-166.6-372-372s166.6-372 372-372 372 166.6 372 372-166.6 372-372 372z" fill="#2196F3"/>
  <path d="M512 336c-48.6 0-88 39.4-88 88s39.4 88 88 88 88-39.4 88-88-39.4-88-88-88z m0 120c-17.7 0-32-14.3-32-32s14.3-32 32-32 32 14.3 32 32-14.3 32-32 32z" fill="#2196F3"/>
  <path d="M512 599.9c-87.5 0-161.1 70.7-161.1 157.4v8.9c0 16.5 13.4 29.8 29.8 29.8h262.6c16.5 0 29.8-13.4 29.8-29.8v-8.9c0-86.7-73.6-157.4-161.1-157.4z" fill="#2196F3"/>
</svg>