<svg t="1703747271094" class="icon" viewBox="0 0 1024 1024" version="1.1" xmlns="http://www.w3.org/2000/svg">
  <path d="M824 464h-56v-56c0-17.7-14.3-32-32-32h-48c-35.3 0-64 28.7-64 64v24h-72c-35.3 0-64 28.7-64 64v160c0 35.3 28.7 64 64 64h272c35.3 0 64-28.7 64-64V528c0-35.3-28.7-64-64-64zM632 448h48v56h-48v-56z m152 176c0 8.8-7.2 16-16 16H552c-8.8 0-16-7.2-16-16V528c0-8.8 7.2-16 16-16h216c8.8 0 16 7.2 16 16v96z" fill="#2196F3"/>
  <path d="M472 544h-56v-56c0-17.7-14.3-32-32-32h-48c-35.3 0-64 28.7-64 64v24h-72c-35.3 0-64 28.7-64 64v160c0 35.3 28.7 64 64 64h272c35.3 0 64-28.7 64-64V608c0-35.3-28.7-64-64-64zM280 528h48v56h-48v-56z m152 176c0 8.8-7.2 16-16 16H200c-8.8 0-16-7.2-16-16V608c0-8.8 7.2-16 16-16h216c8.8 0 16 7.2 16 16v96z" fill="#2196F3"/>
</svg>